<?xml version="1.0" encoding="UTF-8" standalone="no"?>
<svg
   xmlns:dc="http://purl.org/dc/elements/1.1/"
   xmlns:cc="http://creativecommons.org/ns#"
   xmlns:rdf="http://www.w3.org/1999/02/22-rdf-syntax-ns#"
   xmlns:svg="http://www.w3.org/2000/svg"
   xmlns="http://www.w3.org/2000/svg"
   xmlns:xlink="http://www.w3.org/1999/xlink"
   xmlns:sodipodi="http://sodipodi.sourceforge.net/DTD/sodipodi-0.dtd"
   xmlns:inkscape="http://www.inkscape.org/namespaces/inkscape"
   style="isolation:isolate"
   viewBox="0 0 48 48"
   width="48pt"
   height="48pt"
   version="1.1"
   id="svg9"
   sodipodi:docname="battery-caution.svg"
   inkscape:version="1.0.2 (e86c870879, 2021-01-15)">
  <metadata
     id="metadata15">
    <rdf:RDF>
      <cc:Work
         rdf:about="">
        <dc:format>image/svg+xml</dc:format>
        <dc:type
           rdf:resource="http://purl.org/dc/dcmitype/StillImage" />
        <dc:title></dc:title>
      </cc:Work>
    </rdf:RDF>
  </metadata>
  <defs
     id="defs13">
    <linearGradient
       inkscape:collect="always"
       id="linearGradient967">
      <stop
         style="stop-color:#fc4744;stop-opacity:0.84313726"
         offset="0"
         id="stop963" />
      <stop
         style="stop-color:#ffff4e;stop-opacity:0.88524979"
         offset="1"
         id="stop965" />
    </linearGradient>
    <linearGradient
       inkscape:collect="always"
       xlink:href="#linearGradient967"
       id="linearGradient969"
       x1="6"
       y1="24.5"
       x2="42"
       y2="24.5"
       gradientUnits="userSpaceOnUse" />
  </defs>
  <sodipodi:namedview
     pagecolor="#ffffff"
     bordercolor="#666666"
     borderopacity="1"
     objecttolerance="10"
     gridtolerance="10"
     guidetolerance="10"
     inkscape:pageopacity="0"
     inkscape:pageshadow="2"
     inkscape:window-width="1910"
     inkscape:window-height="1056"
     id="namedview11"
     showgrid="false"
     inkscape:zoom="10.09375"
     inkscape:cx="32"
     inkscape:cy="32"
     inkscape:window-x="0"
     inkscape:window-y="0"
     inkscape:window-maximized="1"
     inkscape:current-layer="svg9" />
  <linearGradient
     id="_lgradient_27"
     x1="0"
     y1="0.5"
     x2="1"
     y2="0.5"
     gradientTransform="matrix(36,0,0,43,6,3)"
     gradientUnits="userSpaceOnUse">
    <stop
       offset="0%"
       stop-opacity="1"
       style="stop-color:rgb(247,242,6)"
       id="stop2" />
    <stop
       offset="97.82608695652173%"
       stop-opacity="1"
       style="stop-color:rgb(255,187,36)"
       id="stop4" />
  </linearGradient>
  <path
     d="M 20,8 V 7 h 8 v 1 h -8 z m -9,16 c 0,-1.104 0.896,-2 2,-2 1.104,0 2,0.896 2,2 0,1.104 -0.896,2 -2,2 -1.104,0 -2,-0.896 -2,-2 z m 22,0 c 0,-1.104 0.896,-2 2,-2 1.104,0 2,0.896 2,2 0,1.104 -0.896,2 -2,2 -1.104,0 -2,-0.896 -2,-2 z m 5,0 v -2 -8 c 0,-1.104 -0.896,-2 -2,-2 H 12 c -1.104,0 -2,0.896 -2,2 v 8 2 2 14 c 0,1.104 0.896,2 2,2 h 24 c 1.104,0 2,-0.896 2,-2 V 26 Z m 4,0 V 22 12 C 42,9.792 40.208,8 38,8 H 32 V 5 C 32,3.896 31.104,3 30,3 H 18 C 16.896,3 16,3.896 16,5 V 8 8 8 8 H 10 C 7.792,8 6,9.792 6,12 v 10 2 2 16 c 0,2.208 1.792,4 4,4 h 28 c 2.208,0 4,-1.792 4,-4 V 26 Z"
     fill-rule="evenodd"
     fill="url(#_lgradient_27)"
     id="path7"
     style="fill:url(#linearGradient969);fill-opacity:1"
     sodipodi:nodetypes="cccccccsssssssssssccsssscccssssccccsscssssccccsscccsssscc" />
</svg>
